PathFileType	4	(X/Y/Z)	c:/Users/goper/Files/vsCode/490R/osim_files/C06/C06_Fast_01.trc
DataRate	CameraRate	NumFrames	NumMarkers	Units                	OrigDataRate	OrigDataStartFrame	OrigNumFrames
250.00	250.00	4	36	mm	250.0	1733	3464
                Frame#	Time	LPSIS			LASIS			LTH1			LTH2			LTH3			LTH4			LLFE			LMFE			LSH1			LSH2			LSH3			LSH4			LLMAL			LMMAL			LCAL			LMTP5			LTOE			LMTP1			RPSIS			RASIS			RTH1			RTH2			RTH3			RTH4			RLFE			RMFE			RSH1			RSH2			RSH3			RSH4			RLMAL			RMMAL			RCAL			RMTP1			RTOE			RMTP5		
		X1	Y1	Z1	X2	Y2	Z2	X3	Y3	Z3	X4	Y4	Z4	X5	Y5	Z5	X6	Y6	Z6	X7	Y7	Z7	X8	Y8	Z8	X9	Y9	Z9	X10	Y10	Z10	X11	Y11	Z11	X12	Y12	Z12	X13	Y13	Z13	X14	Y14	Z14	X15	Y15	Z15	X16	Y16	Z16	X17	Y17	Z17	X18	Y18	Z18	X19	Y19	Z19	X20	Y20	Z20	X21	Y21	Z21	X22	Y22	Z22	X23	Y23	Z23	X24	Y24	Z24	X25	Y25	Z25	X26	Y26	Z26	X27	Y27	Z27	X28	Y28	Z28	X29	Y29	Z29	X30	Y30	Z30	X31	Y31	Z31	X32	Y32	Z32	X33	Y33	Z33	X34	Y34	Z34	X35	Y35	Z35	X36	Y36	Z36

1733	6.92800	122.57767	955.00244	201.60977	-45.65383	921.22711	319.68408	92.59168	747.41846	377.79297	104.77531	686.01898	373.21194	18.97277	726.28229	364.85992	41.77740	668.85455	362.66452	199.45700	454.96109	321.73816	203.82674	439.59866	205.47980	322.49918	408.13879	333.64563	343.00049	368.96655	329.68063	268.02005	371.85596	334.54602	300.15973	338.89185	331.89600	471.69879	164.68134	283.95319	452.97067	180.89268	208.54765	541.52173	184.70950	240.64194	431.44281	41.52679	301.77835	380.77313	40.59926	231.88562	416.23911	41.19300	186.97981	124.51294	948.37347	129.53258	-62.21529	929.05048	78.99012	-38.02010	726.40558	-6.25655	-72.58784	673.83099	-0.73319	-104.42624	763.19073	4.11194	-129.05283	706.36652	6.47130	-222.58401	455.16187	50.96510	-228.15770	474.26370	161.03079	-193.82460	370.39160	35.83945	-207.75581	324.44226	35.51701	-253.51132	378.98993	46.63527	-258.67282	332.70798	45.50942	-274.67969	87.03814	79.88415	-283.90958	112.71985	159.07309	-216.96504	63.68485	129.78572	-420.72931	47.02689	163.39651	-438.72983	76.48943	118.17789	-394.14609	41.08197	53.24366
1734	6.93200	115.17357	955.53882	201.97498	-53.75057	920.75171	318.95227	84.11122	746.63171	376.54135	96.91576	685.45367	372.72577	10.88292	725.71997	363.91241	33.59531	668.28125	361.62659	191.12120	454.40067	321.86389	195.25752	438.70294	205.59100	314.74118	409.01691	333.39691	335.71487	369.99124	329.65228	260.55878	372.27606	334.66479	293.38223	339.51825	332.11444	466.80878	166.97191	284.33319	447.28296	182.69943	209.03430	535.39166	189.41873	240.73631	430.39697	42.33408	301.86447	380.11063	40.70681	231.93999	415.07993	41.83643	186.93047	117.51762	949.31018	129.66986	-69.20970	929.66229	78.55980	-45.19686	727.89795	-7.03914	-79.53677	675.33252	-1.49586	-111.59740	764.63422	3.82209	-136.14088	707.68103	6.12154	-229.27827	456.08282	50.76412	-234.29443	475.25873	160.27913	-199.87543	371.34329	34.46389	-213.21582	325.15820	34.34622	-259.48230	379.24765	46.21064	-264.31012	333.01340	44.75776	-275.91895	87.16048	79.83035	-285.41833	112.84684	159.36449	-217.25153	63.95663	129.75758	-421.01056	45.77654	163.75206	-438.99927	74.60387	118.08691	-394.55161	40.56860	53.51106
1735	6.93600	107.83825	956.08398	202.40169	-61.62180	920.42706	318.30478	75.90974	745.92181	375.76651	88.57939	684.74713	371.86380	3.42638	725.35486	363.65106	25.16850	667.72229	360.59723	182.54454	453.86945	322.15396	186.48969	437.69040	205.88966	306.77243	409.84521	333.28049	328.19458	370.92819	329.77527	252.86209	372.59702	334.88751	286.22501	340.09830	332.41031	461.63217	169.34874	284.83926	441.47632	184.55811	209.59718	529.10028	194.24596	240.71307	429.58810	43.19318	301.79282	379.29034	40.84118	232.17226	413.75903	42.71384	186.86426	110.45982	950.27344	129.88380	-76.21142	930.42554	78.10822	-52.30537	729.53790	-7.89294	-86.63658	676.87811	-2.51115	-118.66520	766.07990	3.52913	-142.90648	708.66162	5.39275	-235.98880	456.87009	50.55550	-240.23254	476.17596	159.56006	-205.70921	372.37555	33.04372	-218.51924	326.03082	33.12908	-265.24466	379.51141	45.82923	-269.51764	333.20880	44.32403	-277.08548	87.22919	79.82267	-286.69424	112.70963	159.18991	-217.47812	64.14161	129.69945	-421.15067	44.75784	164.11662	-439.52893	72.94669	118.42487	-394.83185	40.14844	53.69883
1736	6.94000	100.46052	956.61652	202.84064	-69.71643	919.97107	317.54327	67.70852	745.19818	374.97598	79.77202	683.83307	370.65268	-4.82690	725.04071	362.65604	16.61159	667.19855	359.39529	173.75893	453.18658	322.41257	177.44545	436.68448	206.24083	298.52493	410.63834	333.20731	320.44601	371.91022	329.87744	245.11166	372.93854	335.20218	278.90506	340.65720	332.80701	456.16605	171.66461	285.36118	435.41644	186.43396	210.19275	522.58362	199.27318	241.00912	428.59509	44.31048	301.64532	378.33798	40.86649	232.24451	412.28333	43.76256	186.80289	103.52903	951.33942	130.15430	-83.17297	931.36255	77.68647	-59.38934	731.03326	-8.87131	-93.62598	678.58606	-3.50995	-125.57624	767.83447	3.15432	-149.81483	710.01025	5.78909	-242.52817	457.59216	50.23705	-246.29486	477.15668	158.77882	-211.29868	373.36145	31.67824	-223.61096	326.80603	31.95868	-270.82544	379.77490	45.40004	-274.51172	333.28677	44.18823	-277.95520	87.22955	79.69921	-286.88162	111.66846	157.26373	-217.63257	64.31676	129.60341	-421.23904	43.96668	164.69182	-439.90784	71.38645	118.72276	-395.15115	39.70857	53.81634
